<svg width="177" height="25" viewBox="0 0 177 25" fill="none" xmlns="http://www.w3.org/2000/svg">
<path d="M15.0939 24.7031C4.52687 24.7031 0 20.6879 0 12.3193V0.343018H6.17458V12.3193C6.17458 15.6797 7.1025 19.5258 15.0939 19.5258C23.0853 19.5258 24.0132 15.6494 24.0132 12.3193V0.343018H30.1878V12.3193C30.1878 20.6575 25.6262 24.7031 15.0939 24.7031Z" fill="black"/>
<path d="M61.9285 5.52463H50.2644V24.3606H44.0898V5.52463H32.4258V0.343018H61.9328V5.52463H61.9285Z" fill="black"/>
<path d="M63.1137 12.319C63.1137 4.358 67.6406 0.000244141 78.2119 0.000244141C88.7833 0.000244141 93.3058 4.39269 93.3058 12.319C93.3058 20.2454 88.7443 24.7029 78.2119 24.7029C67.6796 24.7029 63.1137 20.3104 63.1137 12.319ZM87.1312 12.319C87.1312 7.44529 84.6597 5.18186 78.2119 5.18186C71.7642 5.18186 69.2926 7.4106 69.2926 12.319C69.2926 17.2275 71.7989 19.5256 78.2119 19.5256C84.625 19.5256 87.1312 17.2275 87.1312 12.319Z" fill="black"/>
<path d="M133.235 24.3606H127.061V0.343018H133.235V24.3606Z" fill="black"/>
<path d="M177 19.5518V24.148H171.133V19.5518H177Z" fill="black"/>
<path d="M144.919 19.2483L142.347 24.3606H135.553L147.937 0.343018H156.275L168.693 24.3606H161.864L159.293 19.2483L156.995 14.6521L152.121 4.90891L147.217 14.6521" fill="black"/>
<path d="M104.502 0.343018H123.373V24.3606H117.198V17.9432H104.502C99.0473 17.9432 95.3053 14.5133 95.3053 9.15827C95.3053 3.80321 99.0473 0.343018 104.502 0.343018ZM106.219 12.7615H117.198V5.52463H106.219C104.368 5.52463 101.484 5.52463 101.484 9.1626C101.484 12.8006 104.368 12.7659 106.219 12.7659V12.7615Z" fill="black"/>
</svg>
