<svg xmlns="http://www.w3.org/2000/svg" viewBox="0 0 64 64"><g id="Capa_2" data-name="Capa 2"><g id="Capa_1-2" data-name="Capa 1"><path d="M56,0H8A8,8,0,0,0,0,8V56a8,8,0,0,0,8,8H56a8,8,0,0,0,8-8V8A8,8,0,0,0,56,0ZM51.22,42.47l-8.71,4.36c-3.13,1.56-6.27,3.11-9.38,4.71a2.26,2.26,0,0,1-2.25,0q-9-4.53-18-9c-.6-.3-1.07-.64-1.07-1.4s.53-1.07,1.12-1.36c1.06-.51,2.12-1,3.14-1.58a1.25,1.25,0,0,1,1.29,0c4.49,2.27,9,4.49,13.47,6.78a2.26,2.26,0,0,0,2.29,0c4.46-2.27,9-4.48,13.42-6.74a1.39,1.39,0,0,1,1.46,0c1.06.59,2.16,1.1,3.25,1.65a1.32,1.32,0,0,1,.89,1.24A1.38,1.38,0,0,1,51.22,42.47ZM11.83,32.09a1.26,1.26,0,0,1,.75-1.27c1.27-.64,2.55-1.27,3.82-1.92a.81.81,0,0,1,.77,0c4.6,2.31,9.21,4.6,13.81,6.93a2,2,0,0,0,2,0c4.57-2.31,9.17-4.59,13.75-6.9a1,1,0,0,1,1,0c1.19.61,2.4,1.2,3.59,1.8A1.28,1.28,0,0,1,52.16,32c0,.72-.45,1-1,1.32L40.93,38.45c-2.76,1.38-5.52,2.75-8.26,4.15a1.36,1.36,0,0,1-1.35,0Q22.13,38,12.89,33.36C12.35,33.09,11.86,32.8,11.83,32.09Zm39.29-7.87q-9.1,4.55-18.2,9.11a1.78,1.78,0,0,1-1.81,0C25,30.26,18.9,27.22,12.8,24.17a1.38,1.38,0,0,1,0-2.62l8.55-4.27c3.22-1.61,6.45-3.21,9.66-4.85a2,2,0,0,1,2,0Q42.06,17,51.15,21.51a1.47,1.47,0,0,1,1,1.36C52.17,23.6,51.69,23.93,51.12,24.22Z"/></g></g></svg>