<svg xmlns="http://www.w3.org/2000/svg" viewBox="0 0 64 64"><g id="Capa_2" data-name="Capa 2"><g id="Capa_1-2" data-name="Capa 1"><path d="M42.41,36.7h-10a3.45,3.45,0,0,0-.72.08,1.16,1.16,0,0,0-1,1.2,1.15,1.15,0,0,0,1,1.19,3.39,3.39,0,0,0,.78.08H37.3c1.7,0,3.41,0,5.11,0A1.33,1.33,0,0,0,43.88,38C43.86,37.24,43.28,36.75,42.41,36.7Z"/><path d="M56,0H8A8,8,0,0,0,0,8V56a8,8,0,0,0,8,8H56a8,8,0,0,0,8-8V8A8,8,0,0,0,56,0ZM52,41.53A10.58,10.58,0,0,1,41.5,52c-3.19,0-6.38,0-9.57,0-3,0-6.07-.07-9.1,0A10.73,10.73,0,0,1,12.1,43,9.75,9.75,0,0,1,12,41.46Q12,32,12,22.52A10.56,10.56,0,0,1,22.49,12q9.51,0,19,0A10.58,10.58,0,0,1,52,22.46Q52,32,52,41.53Z"/><path d="M25.87,28.38c-1.18-1.06-2.36-2.13-3.56-3.18a1.25,1.25,0,0,0-2.16.6,1.41,1.41,0,0,0,.63,1.37c1.62,1.45,3.22,2.91,4.85,4.35.39.34.44.59,0,.94-.59.49-1.16,1-1.73,1.54-1.1,1-2.21,2-3.3,3a1.24,1.24,0,0,0-.39,1.44,1.26,1.26,0,0,0,1.14.8,1.79,1.79,0,0,0,1-.5l6.17-5.55a1.35,1.35,0,0,0,0-2.34Z"/></g></g></svg>