<svg xmlns="http://www.w3.org/2000/svg" viewBox="0 0 64 64"><g id="Capa_2" data-name="Capa 2"><g id="Capa_1-2" data-name="Capa 1"><path d="M56,0H8A8,8,0,0,0,0,8V56a8,8,0,0,0,8,8H56a8,8,0,0,0,8-8V8A8,8,0,0,0,56,0ZM13.82,10.61a4.51,4.51,0,0,1,4.24,5.1,1.09,1.09,0,0,0,.46,1.11c2.6,2.09,5.18,4.2,7.78,6.28.47.38.49.63,0,1A5.81,5.81,0,0,0,25,25.74c-.31.55-.58.58-1.06.18-2.44-2-4.92-4-7.36-6a1.72,1.72,0,0,0-1.86-.43,4.44,4.44,0,0,1-5.64-4.32A4.5,4.5,0,0,1,13.82,10.61Zm13.2,28c-2.68,2.65-5.33,5.34-8,8a1,1,0,0,0-.31,1.15c1,3.29-1.85,6.53-4.64,6.18a4.53,4.53,0,0,1-4.51-2.72A4.66,4.66,0,0,1,10.2,46a4.53,4.53,0,0,1,4.91-1.6,1.46,1.46,0,0,0,1.61-.58c2.57-2.6,5.16-5.17,7.71-7.78.49-.5.77-.52,1.15.09A4.61,4.61,0,0,0,27,37.49C27.62,37.89,27.48,38.18,27,38.64Zm-1.08-8.1a6.58,6.58,0,1,1,6.6,6.56A6.69,6.69,0,0,1,25.94,30.54ZM37.77,54a5,5,0,0,1-4.24-3.28,5.17,5.17,0,0,1,1-5.88,1.3,1.3,0,0,0,.3-1.55c-.41-1.06-.72-2.17-1.1-3.24-.16-.46-.05-.68.45-.75a6.4,6.4,0,0,0,2.2-.72c.48-.26.69-.13.84.36.34,1.09.76,2.15,1.06,3.25a1.3,1.3,0,0,0,1.21,1A5.16,5.16,0,0,1,43.78,47C44.85,50.5,42.2,54,37.77,54ZM52,41.47a4.53,4.53,0,0,1-4.89-3.29A1.43,1.43,0,0,0,46,37c-1.69-.53-3.36-1.14-5-1.69-.53-.18-.72-.39-.41-.94a6.1,6.1,0,0,0,.69-2.07c.09-.56.33-.67.84-.49,1.68.58,3.37,1.12,5,1.72a1.52,1.52,0,0,0,1.66-.21,4.22,4.22,0,0,1,4.67-.44A4.17,4.17,0,0,1,56,36.36C56,39.28,54.33,41.14,52,41.47Zm2.66-25.53a5,5,0,0,1-5.53,1.66,1.38,1.38,0,0,0-1.58.45c-2.26,2.31-4.56,4.58-6.85,6.87-.69.69-.68.69-1.28,0a5.83,5.83,0,0,0-1.35-1.32c-.65-.4-.51-.7,0-1.15,2.36-2.32,4.68-4.68,7-7a1.28,1.28,0,0,0,.38-1.47c-1-3.47,1.54-6.86,5.78-6.85a4.93,4.93,0,0,1,4.24,3.12A5,5,0,0,1,54.67,15.94Z"/></g></g></svg>