<svg xmlns="http://www.w3.org/2000/svg" viewBox="0 0 64 64"><g id="Capa_2" data-name="Capa 2"><g id="Capa_1-2" data-name="Capa 1"><path d="M42.07,30.35c0-.27-.3-.3-.5-.39-3-1.37-5.91-2.71-8.85-4.09a1.77,1.77,0,0,0-1.63,0c-2.88,1.36-5.79,2.67-8.68,4-.22.1-.58.14-.58.42s.39.37.64.49l8.61,3.91c.29.13.59.22.85.32.21-.07.37-.1.52-.16l9.22-4.19C41.84,30.63,42.08,30.57,42.07,30.35Z"/><path d="M43.42,38.06c0-1.89,0-3.77,0-5.65,0-.53-.05-.92-.75-.6-3.1,1.43-6.2,2.86-9.31,4.26a1.09,1.09,0,0,0-.66,1.14c0,3.7,0,7.41,0,11.11,0,.75.21.87.89.56,3-1.4,6-2.76,9.06-4.11a1.18,1.18,0,0,0,.79-1.26C43.4,41.69,43.42,39.87,43.42,38.06Z"/><path d="M16.88,17.44l-.16.06c0,.12,0,.25,0,.37V43.14a5.62,5.62,0,0,0,0,.58c0,.19.15.24.34.23A2.15,2.15,0,0,0,18.9,42c0-3.22.11-6.45,0-9.67-.08-1.8.31-3,2.18-3.47a2.1,2.1,0,0,0,.26-.13c.4-.19.46-.46.28-.86Z"/><path d="M58,21.72c-.5-.19-1-.37-1.54-.51a29.44,29.44,0,0,0-9-.53,14.52,14.52,0,0,0-4.11.79c-.47.16-1.2.23-1.22.77s.76.67,1.24.83a24.62,24.62,0,0,0,7.44.93,22.34,22.34,0,0,0,3.54-.26A11.85,11.85,0,0,0,58,22.81c.26-.11.6-.19.59-.55S58.25,21.82,58,21.72Z"/><path d="M56,0H8A8,8,0,0,0,0,8V56a8,8,0,0,0,8,8H56a8,8,0,0,0,8-8V8A8,8,0,0,0,56,0Zm2.76,44.9a13.18,13.18,0,0,1-4.33,1.15,30.35,30.35,0,0,1-9.51-.24,2.14,2.14,0,0,0-1.39.2c-3.39,1.55-6.8,3.07-10.18,4.65a2.75,2.75,0,0,1-2.6,0C27.2,49,23.64,47.43,20.1,45.82c-.2-.09-.48-.14-.58-.3-.61-1-1.28-.49-1.89-.08a2.67,2.67,0,0,1-3.09,0C11.29,43.7,8,42.07,4.68,40.39c-1.13-.58-1.2-.75-.67-1.93L15,14.23a6.63,6.63,0,0,1,.29-.6c.16-.32.32-.65.75-.63s.61.33.76.65c.61,1.34,1.2,2.68,1.8,4,1.38,3.09,2.78,6.17,4.12,9.27.36.84.77.91,1.53.54,2.16-1,4.35-2,6.51-3a2.53,2.53,0,0,1,2.43,0c2,1,4.06,1.87,6.08,2.8,1,.46,1.09.42,1.1-.65s0-2.37,0-3.54a2.59,2.59,0,0,1,1.83-2.72,17.6,17.6,0,0,1,4.64-1.08A27.32,27.32,0,0,1,57.42,20a8.19,8.19,0,0,1,1.51.6,2.38,2.38,0,0,1,1.38,2.32c0,3.25,0,6.5,0,9.76s0,6.44,0,9.66A2.56,2.56,0,0,1,58.72,44.9Z"/></g></g></svg>