<svg xmlns="http://www.w3.org/2000/svg" viewBox="0 0 64 64"><g id="Capa_2" data-name="Capa 2"><g id="Capa_1-2" data-name="Capa 1"><path d="M43.65,21.61A3.42,3.42,0,0,0,40.27,25a3.44,3.44,0,1,0,3.38-3.43Zm.06,4.61A1.22,1.22,0,0,1,42.45,25a1.28,1.28,0,0,1,1.22-1.26A1.22,1.22,0,0,1,44.89,25,1.11,1.11,0,0,1,43.71,26.22Z"/><path d="M56,0H8A8,8,0,0,0,0,8V56a8,8,0,0,0,8,8H56a8,8,0,0,0,8-8V8A8,8,0,0,0,56,0ZM23.35,46.68c-1.66,1.66-3.3,3.34-5,5A2.93,2.93,0,0,1,18,52a.68.68,0,0,1-.46-.26c-1.66-1.68-3.32-3.37-5-5.05-.25-.26-.28-.45,0-.72q2.51-2.47,5-5c.33-.34.56-.29.87,0,1.63,1.66,3.28,3.3,4.93,4.93C23.66,46.21,23.62,46.4,23.35,46.68Zm4,.86c-1.38,0-1.23.14-1.23-1.23S26,45.1,27.33,45.08s1.23-.15,1.23,1.23S28.71,47.54,27.33,47.54Zm5.94-.85c0,.83,0,.85-.83.85H32c-1.31,0-1.27.2-1.27-1.27,0-1.19,0-1.2,1.17-1.19,1.44,0,1.35-.23,1.36,1.37Zm3.44.85c-1.42,0-1.25.15-1.26-1.26s-.14-1.2,1.2-1.19,1.24-.17,1.26,1.25S38.05,47.54,36.71,47.54Zm14.67-.85c-1.63,1.65-3.27,3.3-4.89,5-.34.35-.57.35-.91,0-1.63-1.66-3.26-3.32-4.9-5-.31-.31-.3-.51,0-.82q2.46-2.43,4.88-4.89c.34-.34.58-.35.92,0,1.63,1.66,3.28,3.29,4.92,4.94a3.09,3.09,0,0,1,.25.31A.68.68,0,0,1,51.38,46.69ZM52,37.21c0,.83,0,.84-.83.84H12.84c-.82,0-.83,0-.83-.84Q12,25,12,12.84c0-.63.18-.81.81-.81,6.4,0,12.8,0,19.19,0H51.14c.86,0,.86,0,.86.86Z"/><path d="M37.28,23.94a8.14,8.14,0,0,0-6.91,3c-.41.5-.43.5-.71-.09a12.64,12.64,0,0,0-11.5-7.63c-1.57-.08-1.29-.15-1.31,1.24,0,.92,0,.93.91.92A10.43,10.43,0,0,1,24,23.35a10.31,10.31,0,0,1,4.53,9c0,.6.17.85.77.76h.31c1.2,0,1.11.11,1.12-1.11v-.25a6,6,0,0,1,5.56-5.62c1.58-.06,1.57-.06,1.52-1.64C37.81,24.1,37.67,24,37.28,23.94Z"/></g></g></svg>