<svg xmlns="http://www.w3.org/2000/svg" viewBox="0 0 64 64"><g id="Capa_2" data-name="Capa 2"><g id="Capa_1-2" data-name="Capa 1"><path d="M56,0H8A8,8,0,0,0,0,8V56a8,8,0,0,0,8,8H56a8,8,0,0,0,8-8V8A8,8,0,0,0,56,0ZM21.09,50.55c0,1.56-.51,2.07-2.05,2.07s-3.17,0-4.76,0A1.57,1.57,0,0,1,12.51,51c0-.17,0-.33,0-.49v-21a4.75,4.75,0,0,1,.06-.84A1.43,1.43,0,0,1,14,27.31c1.84,0,3.69,0,5.53,0a1.46,1.46,0,0,1,1.5,1.39,7.77,7.77,0,0,1,0,.84v21Zm29.29-11.8a5,5,0,0,1-1.77,6,.67.67,0,0,0-.28.77,4,4,0,0,1-2.14,4.71,14.23,14.23,0,0,1-6.1,1.66,72.23,72.23,0,0,1-14.4-.5c-1.08-.14-2.15-.42-3.23-.59-.65-.11-.89-.4-.88-1.08,0-3.39,0-6.78,0-10.17,0-3.2.05-6.4,0-9.6a3.19,3.19,0,0,1,1.05-2.55,23,23,0,0,0,3.18-3.9C28,20.21,29.9,16.8,30.5,12.81c.14-.94.13-1.91.34-2.85a1.86,1.86,0,0,1,2.42-1.67,5,5,0,0,1,4.42,4.94,18.8,18.8,0,0,1-1.56,7.9,10.64,10.64,0,0,0-.69,3.34c0,.88.1,1,1,.78a30.52,30.52,0,0,1,8.4-.89,9.35,9.35,0,0,1,3.34.72,4.24,4.24,0,0,1,2.63,5A3.6,3.6,0,0,0,51,32.36a5.4,5.4,0,0,1-.44,5.35A1.13,1.13,0,0,0,50.38,38.75Z"/></g></g></svg>